<svg width="150" height="44" viewBox="0 0 150 44" fill="none" xmlns="http://www.w3.org/2000/svg">
<path d="M149.167 38.6667C149.167 40.976 147.257 42.8465 144.895 42.8465H5.1104C2.74962 42.8465 0.833374 40.976 0.833374 38.6667V5.33375C0.833374 3.02555 2.74962 1.14844 5.1104 1.14844H144.894C147.257 1.14844 149.166 3.02555 149.166 5.33375L149.167 38.6667Z" fill="black"/>
<path d="M144.444 1.19875C147.017 1.19875 149.11 3.23948 149.11 5.7474V38.2474C149.11 40.7553 147.017 42.796 144.444 42.796H5.55556C2.98333 42.796 0.890277 40.7553 0.890277 38.2474V5.7474C0.890277 3.23948 2.98333 1.19875 5.55556 1.19875H144.444ZM144.444 0.33073H5.55556C2.50139 0.33073 0 2.76958 0 5.7474V38.2474C0 41.2252 2.50139 43.6641 5.55556 43.6641H144.444C147.499 43.6641 150 41.2252 150 38.2474V5.7474C150 2.76958 147.499 0.33073 144.444 0.33073Z" fill="#A6A6A6"/>
<path d="M33.4756 21.764C33.4434 18.2724 36.4078 16.5737 36.5434 16.4947C34.8645 14.1081 32.2623 13.782 31.3478 13.756C29.1623 13.5317 27.0423 15.0311 25.9289 15.0311C24.7934 15.0311 23.0789 13.7777 21.2311 13.8145C18.8534 13.8502 16.6289 15.1925 15.4089 17.2768C12.8911 21.5267 14.7689 27.7722 17.1811 31.2074C18.3878 32.8898 19.7978 34.7683 21.6434 34.7022C23.4489 34.6297 24.1234 33.5799 26.3023 33.5799C28.4611 33.5799 29.0945 34.7022 30.9767 34.66C32.9145 34.6297 34.1345 32.97 35.2989 31.2724C36.6934 29.3441 37.2534 27.445 37.2756 27.3475C37.23 27.3323 33.5123 25.9489 33.4756 21.764Z" fill="white"/>
<path d="M29.92 11.4962C30.8911 10.3121 31.5556 8.70116 31.3711 7.06641C29.9656 7.12707 28.2078 8.01432 27.1956 9.17241C26.3 10.1929 25.5 11.8656 25.7067 13.4386C27.2856 13.5534 28.9067 12.6618 29.92 11.4962Z" fill="white"/>
<path d="M54.5 11.1727C54.5 12.4478 54.1078 13.4076 53.3245 14.0522C52.5989 14.6469 51.5678 14.9448 50.2323 14.9448C49.57 14.9448 49.0034 14.9167 48.5289 14.8603V7.89343C49.1478 7.79593 49.8145 7.74609 50.5345 7.74609C51.8067 7.74609 52.7656 8.01584 53.4123 8.55534C54.1367 9.16526 54.5 10.0373 54.5 11.1727ZM53.2723 11.2041C53.2723 10.3775 53.0478 9.74376 52.5989 9.30176C52.15 8.86084 51.4945 8.63984 50.6312 8.63984C50.2645 8.63984 49.9523 8.66368 49.6934 8.71351V14.0099C49.8367 14.0316 50.0989 14.0413 50.48 14.0413C51.3712 14.0413 52.0589 13.7998 52.5434 13.3166C53.0278 12.8334 53.2723 12.1293 53.2723 11.2041Z" fill="white"/>
<path d="M61.01 12.287C61.01 13.0725 60.78 13.716 60.32 14.2208C59.8378 14.7397 59.1989 14.9986 58.4011 14.9986C57.6322 14.9986 57.02 14.7505 56.5633 14.2522C56.1078 13.755 55.88 13.1277 55.88 12.3715C55.88 11.5807 56.1144 10.9318 56.5856 10.428C57.0567 9.92429 57.69 9.67188 58.4878 9.67188C59.2567 9.67188 59.8745 9.91996 60.3422 10.4172C60.7867 10.9004 61.01 11.5244 61.01 12.287ZM59.8022 12.3239C59.8022 11.8526 59.6978 11.4485 59.49 11.1116C59.2456 10.7043 58.8978 10.5006 58.4456 10.5006C57.9778 10.5006 57.6222 10.7043 57.3778 11.1116C57.1689 11.4485 57.0656 11.8591 57.0656 12.3445C57.0656 12.8157 57.17 13.2198 57.3778 13.5567C57.63 13.964 57.9811 14.1677 58.4345 14.1677C58.8789 14.1677 59.2278 13.9608 59.4789 13.5459C59.6945 13.2025 59.8022 12.7951 59.8022 12.3239Z" fill="white"/>
<path d="M69.7389 9.77734L68.1 14.8842H67.0334L66.3545 12.6666C66.1822 12.113 66.0422 11.5627 65.9334 11.0167H65.9122C65.8111 11.5778 65.6711 12.1271 65.4911 12.6666L64.77 14.8842H63.6911L62.15 9.77734H63.3467L63.9389 12.2051C64.0822 12.7793 64.2 13.3263 64.2945 13.8442H64.3156C64.4022 13.4173 64.5456 12.8735 64.7478 12.2159L65.4911 9.77843H66.44L67.1522 12.1639C67.3245 12.7457 67.4645 13.3058 67.5722 13.8453H67.6045C67.6834 13.3198 67.8022 12.7598 67.96 12.1639L68.5956 9.77843H69.7389V9.77734Z" fill="white"/>
<path d="M75.7755 14.8821H74.6111V11.9571C74.6111 11.0557 74.26 10.6051 73.5555 10.6051C73.21 10.6051 72.9311 10.7286 72.7144 10.9766C72.5 11.2247 72.3911 11.5172 72.3911 11.852V14.881H71.2267V11.2345C71.2267 10.786 71.2122 10.2996 71.1844 9.77305H72.2078L72.2622 10.5715H72.2944C72.43 10.3234 72.6322 10.1186 72.8978 9.95505C73.2133 9.76439 73.5667 9.66797 73.9533 9.66797C74.4422 9.66797 74.8489 9.8218 75.1722 10.1306C75.5744 10.5086 75.7755 11.0731 75.7755 11.8227V14.8821Z" fill="white"/>
<path d="M78.9867 14.8837H77.8234V7.43359H78.9867V14.8837Z" fill="white"/>
<path d="M85.8423 12.287C85.8423 13.0725 85.6123 13.716 85.1523 14.2208C84.6701 14.7397 84.0301 14.9986 83.2334 14.9986C82.4634 14.9986 81.8512 14.7505 81.3956 14.2522C80.9401 13.755 80.7123 13.1277 80.7123 12.3715C80.7123 11.5807 80.9467 10.9318 81.4178 10.428C81.8889 9.92429 82.5223 9.67188 83.3189 9.67188C84.0889 9.67188 84.7056 9.91996 85.1745 10.4172C85.6189 10.9004 85.8423 11.5244 85.8423 12.287ZM84.6334 12.3239C84.6334 11.8526 84.5289 11.4485 84.3212 11.1116C84.0778 10.7043 83.7289 10.5006 83.2778 10.5006C82.8089 10.5006 82.4534 10.7043 82.2101 11.1116C82.0012 11.4485 81.8978 11.8591 81.8978 12.3445C81.8978 12.8157 82.0023 13.2198 82.2101 13.5567C82.4623 13.964 82.8134 14.1677 83.2667 14.1677C83.7112 14.1677 84.0589 13.9608 84.3101 13.5459C84.5267 13.2025 84.6334 12.7951 84.6334 12.3239Z" fill="white"/>
<path d="M91.4779 14.8827H90.4323L90.3456 14.2945H90.3134C89.9556 14.7635 89.4456 14.9986 88.7834 14.9986C88.289 14.9986 87.889 14.8437 87.5879 14.536C87.3145 14.2565 87.1779 13.9088 87.1779 13.496C87.1779 12.872 87.4445 12.3965 87.9812 12.0671C88.5167 11.7378 89.2701 11.5764 90.2401 11.584V11.4886C90.2401 10.8159 89.8779 10.48 89.1523 10.48C88.6356 10.48 88.1801 10.6068 87.7867 10.8581L87.5501 10.1128C88.0367 9.81921 88.6379 9.67188 89.3467 9.67188C90.7156 9.67188 91.4023 10.376 91.4023 11.7844V13.665C91.4023 14.1753 91.4279 14.5815 91.4779 14.8827ZM90.269 13.1277V12.3401C88.9845 12.3185 88.3423 12.6619 88.3423 13.3693C88.3423 13.6358 88.4156 13.8351 88.5656 13.9684C88.7156 14.1016 88.9067 14.1677 89.1345 14.1677C89.3901 14.1677 89.629 14.0886 89.8467 13.9315C90.0656 13.7734 90.2001 13.573 90.2501 13.327C90.2623 13.2718 90.269 13.2046 90.269 13.1277Z" fill="white"/>
<path d="M98.0945 14.8837H97.0611L97.0067 14.0636H96.9745C96.6445 14.6876 96.0823 14.9996 95.2923 14.9996C94.6611 14.9996 94.1356 14.758 93.7189 14.2748C93.3023 13.7917 93.0945 13.1644 93.0945 12.3942C93.0945 11.5676 93.32 10.8981 93.7734 10.3868C94.2123 9.91009 94.75 9.67176 95.39 9.67176C96.0934 9.67176 96.5856 9.90251 96.8656 10.3651H96.8878V7.43359H98.0534V13.5078C98.0534 14.0051 98.0667 14.4633 98.0945 14.8837ZM96.8878 12.73V11.8785C96.8878 11.7312 96.8767 11.612 96.8556 11.521C96.79 11.248 96.6489 11.0183 96.4345 10.8331C96.2178 10.6478 95.9567 10.5547 95.6556 10.5547C95.2211 10.5547 94.8811 10.7226 94.6311 11.0595C94.3834 11.3964 94.2578 11.8265 94.2578 12.3519C94.2578 12.8568 94.3767 13.2663 94.6156 13.5815C94.8678 13.9173 95.2078 14.0853 95.6334 14.0853C96.0156 14.0853 96.3211 13.9455 96.5534 13.6649C96.7778 13.406 96.8878 13.094 96.8878 12.73Z" fill="white"/>
<path d="M108.053 12.287C108.053 13.0725 107.823 13.716 107.363 14.2208C106.881 14.7397 106.243 14.9986 105.444 14.9986C104.677 14.9986 104.064 14.7505 103.607 14.2522C103.151 13.755 102.923 13.1277 102.923 12.3715C102.923 11.5807 103.158 10.9318 103.629 10.428C104.1 9.92429 104.733 9.67188 105.532 9.67188C106.3 9.67188 106.919 9.91996 107.386 10.4172C107.83 10.9004 108.053 11.5244 108.053 12.287ZM106.847 12.3239C106.847 11.8526 106.742 11.4485 106.534 11.1116C106.289 10.7043 105.942 10.5006 105.489 10.5006C105.022 10.5006 104.667 10.7043 104.421 11.1116C104.212 11.4485 104.109 11.8591 104.109 12.3445C104.109 12.8157 104.213 13.2198 104.421 13.5567C104.673 13.964 105.024 14.1677 105.478 14.1677C105.922 14.1677 106.272 13.9608 106.523 13.5459C106.738 13.2025 106.847 12.7951 106.847 12.3239Z" fill="white"/>
<path d="M114.314 14.8821H113.151V11.9571C113.151 11.0557 112.8 10.6051 112.094 10.6051C111.749 10.6051 111.47 10.7286 111.254 10.9766C111.039 11.2247 110.931 11.5172 110.931 11.852V14.881H109.766V11.2345C109.766 10.786 109.752 10.2996 109.724 9.77305H110.747L110.801 10.5715H110.833C110.97 10.3234 111.172 10.1186 111.437 9.95505C111.753 9.76439 112.106 9.66797 112.493 9.66797C112.981 9.66797 113.388 9.8218 113.711 10.1306C114.114 10.5086 114.314 11.0731 114.314 11.8227V14.8821Z" fill="white"/>
<path d="M122.151 10.6262H120.869V13.107C120.869 13.7375 121.097 14.0527 121.548 14.0527C121.757 14.0527 121.93 14.0354 122.067 13.9997L122.097 14.8609C121.867 14.9454 121.565 14.9877 121.192 14.9877C120.732 14.9877 120.375 14.8512 120.116 14.5782C119.856 14.3052 119.727 13.8458 119.727 13.2012V10.6262H118.961V9.77574H119.727V8.83974L120.868 8.50391V9.77466H122.15V10.6262H122.151Z" fill="white"/>
<path d="M128.316 14.8837H127.15V11.9803C127.15 11.0649 126.799 10.6067 126.096 10.6067C125.556 10.6067 125.187 10.8721 124.985 11.4029C124.95 11.5145 124.93 11.651 124.93 11.8113V14.8826H123.767V7.43359H124.93V10.5113H124.952C125.319 9.95126 125.845 9.67176 126.526 9.67176C127.008 9.67176 127.407 9.82559 127.723 10.1343C128.118 10.5189 128.316 11.0909 128.316 11.8471V14.8837Z" fill="white"/>
<path d="M134.674 12.0896C134.674 12.2933 134.659 12.4645 134.631 12.6042H131.139C131.154 13.1091 131.321 13.4936 131.644 13.7601C131.94 13.9985 132.321 14.1176 132.788 14.1176C133.304 14.1176 133.776 14.0375 134.2 13.8761L134.382 14.6647C133.886 14.8749 133.301 14.98 132.624 14.98C131.813 14.98 131.174 14.7471 130.712 14.2812C130.248 13.8154 130.018 13.1903 130.018 12.406C130.018 11.6357 130.232 10.9944 130.664 10.4831C131.116 9.93706 131.726 9.66406 132.496 9.66406C133.249 9.66406 133.821 9.93706 134.208 10.4831C134.52 10.9164 134.674 11.4526 134.674 12.0896ZM133.563 11.7961C133.572 11.4591 133.496 11.1688 133.338 10.924C133.136 10.6087 132.828 10.4506 132.411 10.4506C132.031 10.4506 131.721 10.6044 131.484 10.9131C131.291 11.1591 131.177 11.4526 131.139 11.7961H133.563Z" fill="white"/>
<path d="M59.6055 34.46H57.0822L55.7 30.2252H50.8955L49.5789 34.46H47.1222L51.8822 20.043H54.8222L59.6055 34.46ZM55.2833 28.4486L54.0333 24.684C53.9011 24.2994 53.6533 23.3937 53.2877 21.9681H53.2433C53.0977 22.5812 52.8633 23.4869 52.5411 24.684L51.3133 28.4486H55.2833Z" fill="white"/>
<path d="M71.8466 29.135C71.8466 30.903 71.3566 32.3005 70.3766 33.3264C69.4989 34.2396 68.4089 34.6957 67.1077 34.6957C65.7033 34.6957 64.6944 34.2039 64.08 33.2202H64.0355V38.6965H61.6666V27.4872C61.6666 26.3757 61.6366 25.235 61.5789 24.065H63.6622L63.7944 25.7127H63.8389C64.6289 24.4712 65.8277 23.8516 67.4366 23.8516C68.6944 23.8516 69.7444 24.3358 70.5844 25.3054C71.4266 26.2761 71.8466 27.5522 71.8466 29.135ZM69.4333 29.2195C69.4333 28.2076 69.2 27.3735 68.7311 26.717C68.2189 26.0323 67.5311 25.69 66.6689 25.69C66.0844 25.69 65.5533 25.8806 65.0789 26.2566C64.6033 26.6357 64.2922 27.1308 64.1466 27.744C64.0733 28.03 64.0366 28.264 64.0366 28.4481V30.1815C64.0366 30.9376 64.2744 31.5757 64.75 32.0968C65.2255 32.6179 65.8433 32.8779 66.6033 32.8779C67.4955 32.8779 68.19 32.5421 68.6866 31.8726C69.1844 31.202 69.4333 30.318 69.4333 29.2195Z" fill="white"/>
<path d="M84.1099 29.135C84.1099 30.903 83.6199 32.3005 82.6388 33.3264C81.7622 34.2396 80.6722 34.6957 79.371 34.6957C77.9666 34.6957 76.9577 34.2039 76.3444 33.2202H76.2999V38.6965H73.931V27.4872C73.931 26.3757 73.901 25.235 73.8433 24.065H75.9266L76.0588 25.7127H76.1033C76.8921 24.4712 78.091 23.8516 79.701 23.8516C80.9577 23.8516 82.0077 24.3358 82.8499 25.3054C83.6888 26.2761 84.1099 27.5522 84.1099 29.135ZM81.6966 29.2195C81.6966 28.2076 81.4622 27.3735 80.9933 26.717C80.481 26.0323 79.7955 25.69 78.9322 25.69C78.3466 25.69 77.8166 25.8806 77.341 26.2566C76.8655 26.6357 76.5555 27.1308 76.4099 27.744C76.3377 28.03 76.2999 28.264 76.2999 28.4481V30.1815C76.2999 30.9376 76.5377 31.5757 77.011 32.0968C77.4866 32.6168 78.1044 32.8779 78.8666 32.8779C79.7588 32.8779 80.4533 32.5421 80.9499 31.8726C81.4477 31.202 81.6966 30.318 81.6966 29.2195Z" fill="white"/>
<path d="M97.821 30.4173C97.821 31.6436 97.3844 32.6414 96.5077 33.4116C95.5444 34.2534 94.2033 34.6737 92.4799 34.6737C90.8888 34.6737 89.6133 34.3747 88.6477 33.7756L89.1966 31.8505C90.2366 32.4637 91.3777 32.7714 92.621 32.7714C93.5133 32.7714 94.2077 32.5742 94.7066 32.182C95.2033 31.7899 95.451 31.2634 95.451 30.6069C95.451 30.0219 95.2466 29.529 94.8366 29.1292C94.4288 28.7295 93.7477 28.3579 92.7966 28.0145C90.2077 27.073 88.9144 25.694 88.9144 23.8805C88.9144 22.6953 89.3677 21.7235 90.2755 20.9674C91.1799 20.2101 92.3866 19.832 93.8955 19.832C95.241 19.832 96.3588 20.0606 97.251 20.5167L96.6588 22.3995C95.8255 21.9575 94.8833 21.7365 93.8288 21.7365C92.9955 21.7365 92.3444 21.9369 91.8777 22.3356C91.4833 22.692 91.2855 23.1264 91.2855 23.641C91.2855 24.2109 91.511 24.6821 91.9644 25.0526C92.3588 25.395 93.0755 25.7655 94.1155 26.1652C95.3877 26.6646 96.3222 27.2485 96.9233 27.918C97.5222 28.5854 97.821 29.4206 97.821 30.4173Z" fill="white"/>
<path d="M105.653 25.7962H103.042V30.8435C103.042 32.1272 103.502 32.7686 104.424 32.7686C104.848 32.7686 105.199 32.7328 105.477 32.6613L105.542 34.4152C105.076 34.5853 104.461 34.6709 103.7 34.6709C102.764 34.6709 102.033 34.3925 101.506 33.8367C100.98 33.2799 100.716 32.3461 100.716 31.0342V25.7941H99.16V24.0607H100.716V22.1573L103.042 21.4727V24.0607H105.653V25.7962Z" fill="white"/>
<path d="M117.434 29.1761C117.434 30.7741 116.966 32.086 116.03 33.1119C115.049 34.1681 113.747 34.6946 112.123 34.6946C110.559 34.6946 109.313 34.1887 108.384 33.1769C107.456 32.1651 106.991 30.8878 106.991 29.3484C106.991 27.7375 107.469 26.418 108.428 25.3921C109.384 24.3651 110.676 23.8516 112.299 23.8516C113.863 23.8516 115.122 24.3575 116.072 25.3704C116.981 26.353 117.434 27.6216 117.434 29.1761ZM114.977 29.2509C114.977 28.2921 114.767 27.4699 114.341 26.7841C113.844 25.9543 113.134 25.5405 112.214 25.5405C111.262 25.5405 110.539 25.9554 110.042 26.7841C109.617 27.471 109.407 28.3062 109.407 29.2942C109.407 30.253 109.617 31.0752 110.042 31.7599C110.554 32.5897 111.27 33.0036 112.193 33.0036C113.098 33.0036 113.808 32.5811 114.32 31.7382C114.757 31.0395 114.977 30.2086 114.977 29.2509Z" fill="white"/>
<path d="M125.134 26.0962C124.9 26.054 124.65 26.0323 124.388 26.0323C123.554 26.0323 122.91 26.3389 122.457 26.9531C122.062 27.4948 121.864 28.1795 121.864 29.0061V34.4606H119.497L119.519 27.3388C119.519 26.1406 119.489 25.0497 119.43 24.0661H121.493L121.58 26.0551H121.645C121.895 25.3715 122.29 24.8211 122.83 24.4084C123.358 24.0368 123.928 23.8516 124.542 23.8516C124.761 23.8516 124.959 23.8667 125.134 23.8938V26.0962Z" fill="white"/>
<path d="M135.729 28.7709C135.729 29.1848 135.701 29.5336 135.642 29.8185H128.536C128.563 30.8455 128.907 31.6309 129.567 32.1726C130.166 32.6569 130.94 32.8995 131.891 32.8995C132.943 32.8995 133.903 32.7359 134.767 32.4077L135.138 34.011C134.129 34.44 132.938 34.6534 131.563 34.6534C129.91 34.6534 128.612 34.1789 127.668 33.231C126.726 32.2831 126.253 31.0102 126.253 29.4134C126.253 27.8458 126.692 26.5404 127.571 25.4993C128.491 24.3878 129.734 23.832 131.299 23.832C132.836 23.832 133.999 24.3878 134.789 25.4993C135.414 26.3822 135.729 27.4742 135.729 28.7709ZM133.47 28.1719C133.486 27.4872 133.331 26.8957 133.01 26.3963C132.6 25.7539 131.97 25.4332 131.122 25.4332C130.348 25.4332 129.718 25.7463 129.237 26.3746C128.842 26.874 128.608 27.4731 128.536 28.1708H133.47V28.1719Z" fill="white"/>
</svg>
