<svg width="150" height="44" viewBox="0 0 150 44" fill="none" xmlns="http://www.w3.org/2000/svg">
<path d="M144.444 43.6641H5.55556C2.50139 43.6641 0 41.2252 0 38.2474V5.7474C0 2.76959 2.50139 0.330732 5.55556 0.330732H144.444C147.499 0.330732 150 2.76959 150 5.7474V38.2474C150 41.2252 147.499 43.6641 144.444 43.6641Z" fill="black"/>
<path d="M144.444 1.19875C147.017 1.19875 149.11 3.23948 149.11 5.7474V38.2474C149.11 40.7553 147.017 42.796 144.444 42.796H5.55556C2.98333 42.796 0.890277 40.7553 0.890277 38.2474V5.7474C0.890277 3.23948 2.98333 1.19875 5.55556 1.19875H144.444ZM144.444 0.330732H5.55556C2.50139 0.330732 0 2.76959 0 5.7474V38.2474C0 41.2252 2.50139 43.6641 5.55556 43.6641H144.444C147.499 43.6641 150 41.2252 150 38.2474V5.7474C150 2.76959 147.499 0.330732 144.444 0.330732Z" fill="#A6A6A6"/>
<path d="M10.7611 8.4963C10.4347 8.82943 10.2458 9.34807 10.2458 10.0197V33.9777C10.2458 34.6493 10.4347 35.168 10.7611 35.5011L10.8417 35.5742L24.6111 22.1544V21.8376L10.8417 8.41776L10.7611 8.4963Z" fill="white"/>
<path d="M30.8626 26.6328L26.2778 22.1573V21.8404L30.8681 17.3649L30.9709 17.4231L36.407 20.4389C37.9584 21.2947 37.9584 22.703 36.407 23.5643L30.9709 26.5746L30.8626 26.6328Z" fill="white"/>
<path d="M30.1375 27.4069L25.4445 22.8312L11.5945 36.3363C12.1098 36.8644 12.95 36.928 13.9056 36.3999L30.1375 27.4069Z" fill="white"/>
<path d="M30.1375 16.5883L13.9056 7.59532C12.95 7.07261 12.1098 7.13625 11.5945 7.66438L25.4445 21.1641L30.1375 16.5883Z" fill="white"/>
<path d="M52.6862 11.4259C52.6862 12.3305 52.4084 13.055 51.8612 13.5953C51.232 14.2358 50.4125 14.5581 49.4084 14.5581C48.4487 14.5581 47.6292 14.2304 46.957 13.5845C46.2834 12.9291 45.9473 12.1247 45.9473 11.1619C45.9473 10.1991 46.2834 9.39469 46.957 8.74469C47.6292 8.09333 48.4487 7.76562 49.4084 7.76562C49.8862 7.76562 50.3417 7.86177 50.7764 8.04052C51.2098 8.22062 51.5625 8.46437 51.8181 8.765L51.2375 9.33646C50.7917 8.82323 50.1848 8.57 49.4084 8.57C48.7084 8.57 48.1014 8.80833 47.5862 9.28906C47.0764 9.77115 46.8209 10.3954 46.8209 11.1619C46.8209 11.9283 47.0764 12.558 47.5862 13.0401C48.1014 13.5154 48.7084 13.7592 49.4084 13.7592C50.1514 13.7592 50.7764 13.5154 51.2695 13.0347C51.5945 12.7165 51.7792 12.2777 51.8278 11.7171H49.4084V10.9344H52.6362C52.675 11.1036 52.6862 11.2675 52.6862 11.4259Z" fill="white" stroke="white" stroke-width="0.16" stroke-miterlimit="10"/>
<path d="M57.807 8.71167H54.7751V10.77H57.5084V11.5527H54.7751V13.611H57.807V14.4086H53.9167V7.91406H57.807V8.71167Z" fill="white" stroke="white" stroke-width="0.16" stroke-miterlimit="10"/>
<path d="M61.4209 14.4086H60.5626V8.71167H58.7029V7.91406H63.282V8.71167H61.4209V14.4086Z" fill="white" stroke="white" stroke-width="0.16" stroke-miterlimit="10"/>
<path d="M66.5959 14.4086V7.91406H67.4529V14.4086H66.5959Z" fill="white" stroke="white" stroke-width="0.16" stroke-miterlimit="10"/>
<path d="M71.2515 14.4086H70.4001V8.71167H68.5334V7.91406H73.1182V8.71167H71.2515V14.4086Z" fill="white" stroke="white" stroke-width="0.16" stroke-miterlimit="10"/>
<path d="M81.7876 13.5736C81.1306 14.2304 80.3167 14.5581 79.3459 14.5581C78.3695 14.5581 77.5556 14.2304 76.8987 13.5736C76.2431 12.9182 75.9167 12.1139 75.9167 11.1619C75.9167 10.2099 76.2431 9.40552 76.8987 8.7501C77.5556 8.09333 78.3695 7.76562 79.3459 7.76562C80.3112 7.76562 81.1251 8.09333 81.782 8.75552C82.4431 9.41635 82.7695 10.2153 82.7695 11.1619C82.7695 12.1139 82.4431 12.9182 81.7876 13.5736ZM77.5334 13.0293C78.0279 13.5154 78.6292 13.7592 79.3459 13.7592C80.057 13.7592 80.664 13.5154 81.1529 13.0293C81.6459 12.5431 81.8959 11.9189 81.8959 11.1619C81.8959 10.4049 81.6459 9.78063 81.1529 9.29448C80.664 8.80833 80.057 8.56458 79.3459 8.56458C78.6292 8.56458 78.0279 8.80833 77.5334 9.29448C77.0404 9.78063 76.7904 10.4049 76.7904 11.1619C76.7904 11.9189 77.0404 12.5431 77.5334 13.0293Z" fill="white" stroke="white" stroke-width="0.16" stroke-miterlimit="10"/>
<path d="M83.9736 14.4086V7.91406H85.0153L88.2542 12.9651H88.2917L88.2542 11.7166V7.91406H89.1111V14.4086H88.2167L84.825 9.10844H84.7875L84.825 10.3624V14.4086H83.9736Z" fill="white" stroke="white" stroke-width="0.16" stroke-miterlimit="10"/>
<path d="M75.7056 23.894C73.0959 23.894 70.964 25.8305 70.964 28.5022C70.964 31.1523 73.0959 33.1091 75.7056 33.1091C78.3209 33.1091 80.4529 31.1523 80.4529 28.5022C80.4529 25.8305 78.3209 23.894 75.7056 23.894ZM75.7056 31.2945C74.2737 31.2945 73.0418 30.1421 73.0418 28.5022C73.0418 26.8407 74.2737 25.7086 75.7056 25.7086C77.1376 25.7086 78.3751 26.8407 78.3751 28.5022C78.3751 30.1421 77.1376 31.2945 75.7056 31.2945ZM65.3598 23.894C62.7445 23.894 60.6181 25.8305 60.6181 28.5022C60.6181 31.1523 62.7445 33.1091 65.3598 33.1091C67.9737 33.1091 70.1015 31.1523 70.1015 28.5022C70.1015 25.8305 67.9737 23.894 65.3598 23.894ZM65.3598 31.2945C63.9265 31.2945 62.6904 30.1421 62.6904 28.5022C62.6904 26.8407 63.9265 25.7086 65.3598 25.7086C66.7918 25.7086 68.0237 26.8407 68.0237 28.5022C68.0237 30.1421 66.7918 31.2945 65.3598 31.2945ZM53.0487 25.3064V27.2645H57.8445C57.7043 28.3587 57.3293 29.1631 56.7543 29.7237C56.0543 30.4008 54.964 31.1523 53.0487 31.1523C50.0973 31.1523 47.7862 28.83 47.7862 25.9523C47.7862 23.0747 50.0973 20.7523 53.0487 20.7523C54.6445 20.7523 55.8056 21.3604 56.6626 22.1485L58.0779 20.7686C56.8793 19.6528 55.2848 18.7956 53.0487 18.7956C49.0015 18.7956 45.6001 22.0063 45.6001 25.9523C45.6001 29.8984 49.0015 33.1091 53.0487 33.1091C55.2362 33.1091 56.8793 32.4104 58.1709 31.0995C59.4945 29.809 59.907 27.9944 59.907 26.5292C59.907 26.0742 59.8681 25.6558 59.7987 25.3064H53.0487ZM103.39 26.8244C103 25.7939 101.796 23.894 99.3431 23.894C96.9126 23.894 94.889 25.7614 94.889 28.5022C94.889 31.0833 96.8917 33.1091 99.5765 33.1091C101.747 33.1091 103 31.8186 103.515 31.067L101.904 30.0203C101.367 30.7867 100.635 31.2945 99.5765 31.2945C98.5251 31.2945 97.7709 30.8246 97.2876 29.8984L103.608 27.3485L103.39 26.8244ZM96.9459 28.3587C96.8917 26.582 98.3612 25.672 99.414 25.672C100.239 25.672 100.939 26.0742 101.172 26.6497L96.9459 28.3587ZM91.8084 32.8288H93.8862V19.2871H91.8084V32.8288ZM88.4056 24.9205H88.3362C87.8695 24.3815 86.9793 23.894 85.8515 23.894C83.4848 23.894 81.3209 25.9198 81.3209 28.5171C81.3209 31.0995 83.4848 33.1091 85.8515 33.1091C86.9793 33.1091 87.8695 32.6176 88.3362 32.0623H88.4056V32.7232C88.4056 34.4849 87.4404 35.4315 85.8834 35.4315C84.614 35.4315 83.8265 34.5378 83.5015 33.7862L81.6945 34.5215C82.2154 35.743 83.5945 37.2461 85.8834 37.2461C88.3195 37.2461 90.3751 35.8486 90.3751 32.4483V24.1743H88.4056V24.9205ZM86.0293 31.2945C84.5973 31.2945 83.3987 30.1259 83.3987 28.5171C83.3987 26.8935 84.5973 25.7086 86.0293 25.7086C87.4404 25.7086 88.5529 26.8935 88.5529 28.5171C88.5529 30.1259 87.4404 31.2945 86.0293 31.2945ZM113.118 19.2871H108.149V32.8288H110.221V27.6979H113.118C115.42 27.6979 117.676 26.0742 117.676 23.4918C117.676 20.9108 115.414 19.2871 113.118 19.2871ZM113.172 25.8142H110.221V21.1708H113.172C114.72 21.1708 115.603 22.4234 115.603 23.4918C115.603 24.54 114.72 25.8142 113.172 25.8142ZM125.982 23.8683C124.485 23.8683 122.928 24.5129 122.288 25.9415L124.126 26.6931C124.522 25.9415 125.25 25.6978 126.02 25.6978C127.095 25.6978 128.185 26.3275 128.201 27.4392V27.5814C127.826 27.3702 127.024 27.0573 126.036 27.0573C124.056 27.0573 122.038 28.1204 122.038 30.1042C122.038 31.9188 123.66 33.0874 125.483 33.0874C126.878 33.0874 127.647 32.474 128.131 31.7604H128.201V32.8071H130.203V27.6126C130.203 25.2116 128.364 23.8683 125.982 23.8683ZM125.732 31.2891C125.054 31.2891 124.11 30.9614 124.11 30.1421C124.11 29.094 125.288 28.6918 126.307 28.6918C127.22 28.6918 127.647 28.8882 128.201 29.1468C128.039 30.4008 126.932 31.2891 125.732 31.2891ZM137.495 24.1648L135.113 30.0352H135.042L132.579 24.1648H130.345L134.045 32.3684L131.933 36.9333H134.099L139.8 24.1648H137.495ZM118.815 32.8288H120.893V19.2871H118.815V32.8288Z" fill="white"/>
</svg>
