<svg width="16" height="16" viewBox="0 0 16 16" fill="none" xmlns="http://www.w3.org/2000/svg">
<path d="M2.14602 2.85399C2.09953 2.8075 2.06266 2.75231 2.0375 2.69157C2.01234 2.63083 1.99939 2.56573 1.99939 2.49999C1.99939 2.43425 2.01234 2.36915 2.0375 2.30841C2.06266 2.24767 2.09953 2.19248 2.14602 2.14599C2.19251 2.0995 2.2477 2.06263 2.30844 2.03747C2.36918 2.01231 2.43428 1.99936 2.50002 1.99936C2.56577 1.99936 2.63087 2.01231 2.6916 2.03747C2.75234 2.06263 2.80753 2.0995 2.85402 2.14599L8.00002 7.29299L13.146 2.14599C13.1925 2.0995 13.2477 2.06263 13.3084 2.03747C13.3692 2.01231 13.4343 1.99936 13.5 1.99936C13.5658 1.99936 13.6309 2.01231 13.6916 2.03747C13.7523 2.06263 13.8075 2.0995 13.854 2.14599C13.9005 2.19248 13.9374 2.24767 13.9625 2.30841C13.9877 2.36915 14.0007 2.43425 14.0007 2.49999C14.0007 2.56573 13.9877 2.63083 13.9625 2.69157C13.9374 2.75231 13.9005 2.8075 13.854 2.85399L8.70702 7.99999L13.854 13.146C13.9005 13.1925 13.9374 13.2477 13.9625 13.3084C13.9877 13.3691 14.0007 13.4342 14.0007 13.5C14.0007 13.5657 13.9877 13.6308 13.9625 13.6916C13.9374 13.7523 13.9005 13.8075 13.854 13.854C13.8075 13.9005 13.7523 13.9374 13.6916 13.9625C13.6309 13.9877 13.5658 14.0006 13.5 14.0006C13.4343 14.0006 13.3692 13.9877 13.3084 13.9625C13.2477 13.9374 13.1925 13.9005 13.146 13.854L8.00002 8.70699L2.85402 13.854C2.80753 13.9005 2.75234 13.9374 2.6916 13.9625C2.63087 13.9877 2.56577 14.0006 2.50002 14.0006C2.43428 14.0006 2.36918 13.9877 2.30844 13.9625C2.2477 13.9374 2.19251 13.9005 2.14602 13.854C2.09953 13.8075 2.06266 13.7523 2.0375 13.6916C2.01234 13.6308 1.99939 13.5657 1.99939 13.5C1.99939 13.4342 2.01234 13.3691 2.0375 13.3084C2.06266 13.2477 2.09953 13.1925 2.14602 13.146L7.29302 7.99999L2.14602 2.85399Z" fill="#28A745"/>
</svg>
