<svg width="24" height="24" viewBox="0 0 24 24" fill="none" xmlns="http://www.w3.org/2000/svg">
<rect width="24" height="24" rx="12" fill="#F3F4F6"/>
<path d="M8.7998 15.9602L9.56179 15.3506L9.56739 15.3463C9.72624 15.2192 9.8064 15.1551 9.89584 15.1094C9.97608 15.0684 10.0616 15.0385 10.1499 15.0204C10.2494 15 10.353 15 10.561 15H14.9015C15.4605 15 15.7403 15 15.954 14.8911C16.1422 14.7952 16.2952 14.6421 16.3911 14.4539C16.5 14.2402 16.5 13.9607 16.5 13.4018V9.59846C16.5 9.0395 16.5 8.7596 16.3911 8.5459C16.2952 8.35774 16.1419 8.20487 15.9537 8.10899C15.7398 8 15.4602 8 14.9001 8H9.1001C8.54005 8 8.25981 8 8.0459 8.10899C7.85774 8.20487 7.70487 8.35774 7.60899 8.5459C7.5 8.75981 7.5 9.04005 7.5 9.6001V15.3356C7.5 15.8684 7.5 16.1348 7.60923 16.2717C7.70422 16.3907 7.84822 16.4599 8.00049 16.4597C8.17558 16.4595 8.38372 16.293 8.7998 15.9602Z" stroke="#879BB7" stroke-linecap="round" stroke-linejoin="round"/>
</svg>
